Coordinates
version=1
nRows=7
nColumns=40
inDegrees=yes

Units are S.I. units (second, meters, Newtons, ...)
Angles are in degrees.

endheader
time	pelvis_tilt	pelvis_list	pelvis_rotation	pelvis_tx	pelvis_ty	pelvis_tz	hip_flexion_r	hip_adduction_r	hip_rotation_r	knee_angle_r	knee_angle_r_beta	ankle_angle_r	subtalar_angle_r	mtp_angle_r	hip_flexion_l	hip_adduction_l	hip_rotation_l	knee_angle_l	knee_angle_l_beta	ankle_angle_l	subtalar_angle_l	mtp_angle_l	lumbar_extension	lumbar_bending	lumbar_rotation	arm_flex_r	arm_add_r	arm_rot_r	elbow_flex_r	pro_sup_r	wrist_flex_r	wrist_dev_r	arm_flex_l	arm_add_l	arm_rot_l	elbow_flex_l	pro_sup_l	wrist_flex_l	wrist_dev_l
      0.93000000	     -2.10838336	      0.50937471	     -0.76060307	      0.30412159	      0.89051025	      1.46731779	     21.13253323	     -5.72611327	     -6.93485753	    -66.68008250	     -1.16378699	     -5.97697705	    -16.11556640	     19.33642019	     15.89279426	     -2.91306784	      8.39730956	    -32.15876879	     -0.56127640	     12.92014309	     13.12458992	      6.88359762	     -2.61954320	     -4.60281451	     -4.48986777	     -3.55402066	     -9.49395268	     -6.37963750	     36.95580252	     89.95437384	      0.00000000	      0.00000000	     -1.37120291	     10.97264725	     21.22117059	     33.35215061	     89.95437384	      0.00000000	      0.00000000
      0.94000000	     -2.23393700	      0.37275860	     -0.15043677	      0.31687702	      0.89143616	      1.46622956	     22.65739318	     -5.55825611	     -7.33734694	    -65.57453517	     -1.14449154	     -4.39312072	    -15.85743225	     18.74352882	     14.75005758	     -2.82811931	      8.28931613	    -31.54159451	     -0.55050468	     13.16331409	     12.49000896	      6.47180303	     -2.56952896	     -4.51616728	     -4.98743960	     -3.86875880	     -9.34735770	     -6.78804376	     34.96543667	     89.95437384	      0.00000000	      0.00000000	     -0.69864411	     11.24208386	     21.04300104	     35.11679076	     89.95437384	      0.00000000	      0.00000000
      0.95000000	     -2.52510282	      0.32029722	      0.40461364	      0.32983768	      0.89185250	      1.46491255	     24.24568246	     -5.60799346	     -7.83075563	    -64.09773647	     -1.11871654	     -3.35423072	    -15.66072758	     18.28200329	     13.85924305	     -2.76478657	      8.64574514	    -30.99069361	     -0.54088964	     13.34407840	     12.05920131	      6.23809448	     -2.29383213	     -4.47204345	     -5.25908081	     -4.64484230	     -9.40838990	     -6.98593112	     33.63655574	     89.95437384	      0.00000000	      0.00000000	      0.11548697	     11.38704805	     20.91434685	     36.59846603	     89.95437384	      0.00000000	      0.00000000
      0.96000000	     -2.10682336	      0.26632601	      1.12238666	      0.34294277	      0.89326577	      1.46385288	     24.82640716	     -5.56254253	     -8.27931840	    -62.21001540	     -1.08576960	     -1.80193623	    -15.62929334	     17.90296621	     12.03950363	     -2.73403038	      8.39032607	    -30.21466733	     -0.52734543	     13.45144431	     10.93215069	      5.64585638	     -2.88120587	     -4.51680403	     -6.10676106	     -4.50936950	     -9.04871631	     -7.77040484	     31.12781849	     89.95437384	      0.00000000	      0.00000000	      0.38091909	     11.73013616	     20.85972887	     39.05907294	     89.95437384	      0.00000000	      0.00000000
      0.97000000	     -2.44225614	      0.33604940	      1.50742609	      0.35564013	      0.89315247	      1.46264620	     26.31982421	     -5.77956491	     -8.68833977	    -60.15623011	     -1.04992428	     -1.13960191	    -15.41408727	     17.53032244	     11.35836048	     -2.81995332	      8.58614298	    -29.97102295	     -0.52309303	     13.49966639	     10.54568825	      5.44989502	     -2.59264193	     -4.58841371	     -6.11914565	     -5.44353551	     -9.20250651	     -7.86269778	     30.12586808	     89.95437384	      0.00000000	      0.00000000	      1.29170362	     11.80424051	     20.74016855	     40.51144864	     89.95437384	      0.00000000	      0.00000000
      0.98000000	     -1.84573519	      0.04283754	      2.29421675	      0.36923419	      0.89451800	      1.46181817	     26.27238341	     -5.41709995	     -9.24341639	    -57.44089232	     -1.00253270	      0.14774718	    -16.08599948	     17.64336784	      9.29167654	     -2.51500178	      8.09466116	    -29.10956081	     -0.50805768	     13.66320754	      9.60000762	      4.80098069	     -3.33562387	     -4.35686837	     -7.06356403	     -5.22861514	     -8.83285720	     -8.90811448	     27.52563227	     89.95437384	      0.00000000	      0.00000000	      1.45053961	     12.16402600	     20.72846734	     42.99004115	     89.95437384	      0.00000000	      0.00000000
      0.99000000	     -1.93283372	     -0.02074548	      2.80627949	      0.38232740	      0.89439620	      1.46106496	     27.12967429	     -5.31195783	     -9.51533830	    -54.73764597	     -0.95535215	      1.18096320	    -16.34850395	     17.59416306	      8.20500358	     -2.44429498	      7.94471793	    -28.62004140	     -0.49951395	     13.90114548	      9.14042846	      4.43104990	     -3.31065089	     -4.35431335	     -7.45598745	     -5.64716733	     -8.75901322	     -9.39098168	     25.81780020	     89.95437384	      0.00000000	      0.00000000	      1.88946695	     12.45757132	     20.49914443	     45.00867638	     89.95437384	      0.00000000	      0.00000000
